<?xml version="1.0" standalone="no"?>
<!DOCTYPE svg PUBLIC "-//W3C//DTD SVG 20010904//EN"
 "http://www.w3.org/TR/2001/REC-SVG-20010904/DTD/svg10.dtd">
<svg version="1.0" xmlns="http://www.w3.org/2000/svg"
 width="877.000000pt" height="295.000000pt" viewBox="0 0 877.000000 295.000000"
 preserveAspectRatio="xMidYMid meet">
<metadata>
Created by potrace 1.15, written by Peter Selinger 2001-2017
</metadata>
<g transform="translate(0.000000,295.000000) scale(0.100000,-0.100000)"
fill="#000000" stroke="none">
<path d="M81 2932 c-19 -9 -44 -30 -55 -45 l-21 -28 0 -1384 0 -1384 21 -28
c11 -15 36 -36 55 -45 32 -17 259 -18 4304 -18 4045 0 4272 1 4304 18 19 9 44
30 55 45 l21 28 0 1384 0 1384 -21 28 c-11 15 -36 36 -55 45 -32 17 -259 18
-4304 18 -4045 0 -4272 -1 -4304 -18z m8589 -82 c20 -20 20 -33 20 -1375 0
-1342 0 -1355 -20 -1375 -20 -20 -33 -20 -4285 -20 -4252 0 -4265 0 -4285 20
-20 20 -20 33 -20 1375 0 1342 0 1355 20 1375 20 20 33 20 4285 20 4252 0
4265 0 4285 -20z"/>
<path d="M2600 2432 c-54 -17 -73 45 371 -1217 50 -143 124 -357 165 -475 47
-136 82 -221 95 -232 11 -9 40 -20 66 -24 58 -9 204 0 230 14 20 11 37 56 212
562 43 124 92 263 110 310 l32 85 -72 152 c-47 98 -76 150 -83 143 -5 -5 -27
-65 -48 -132 -22 -68 -43 -124 -49 -126 -5 -2 -9 -14 -9 -27 0 -13 -50 -176
-112 -361 l-112 -337 -48 139 c-27 77 -82 243 -124 369 -42 127 -82 244 -90
260 -7 17 -49 138 -93 270 -159 479 -201 600 -216 614 -16 17 -181 26 -225 13z"/>
<path d="M3423 2414 c-6 -16 58 -162 86 -196 13 -16 37 -18 243 -18 l228 0 0
-469 0 -469 125 -252 c69 -138 130 -248 135 -245 6 4 10 266 10 720 l0 714
275 3 c239 3 276 5 291 19 20 21 24 152 5 187 l-12 22 -690 0 c-624 0 -690 -2
-696 -16z"/>
<path d="M6750 2331 l-25 -7 0 -644 0 -644 36 -9 c20 -5 51 -4 70 0 l34 9 3
639 c1 351 -1 642 -5 646 -12 12 -85 19 -113 10z"/>
<path d="M4950 1927 c-203 -48 -312 -208 -312 -459 0 -298 139 -452 407 -452
150 0 256 45 333 143 123 156 134 449 22 624 -35 55 -106 109 -175 132 -66 22
-205 28 -275 12z m195 -128 c61 -17 129 -90 151 -164 24 -81 25 -241 1 -312
-42 -121 -118 -177 -242 -177 -170 -1 -256 108 -257 323 0 180 62 296 180 331
40 12 121 12 167 -1z"/>
<path d="M5972 1930 c-205 -43 -322 -211 -322 -461 0 -211 76 -359 215 -420
69 -30 179 -44 263 -31 244 36 377 228 359 517 -13 198 -103 335 -250 381 -62
19 -205 27 -265 14z m232 -154 c158 -93 171 -466 20 -585 -15 -12 -52 -29 -83
-38 -46 -13 -67 -14 -119 -5 -91 15 -133 47 -174 129 -32 66 -33 70 -33 198 0
114 3 136 23 181 28 62 84 118 137 139 63 23 172 15 229 -19z"/>
<path d="M7295 1920 c-137 -44 -206 -160 -174 -292 20 -84 86 -141 230 -201
145 -60 181 -92 181 -162 0 -88 -69 -131 -198 -123 -58 4 -88 13 -146 41 -66
33 -74 34 -85 20 -20 -26 -16 -87 7 -116 54 -68 280 -95 403 -47 104 39 159
106 173 209 10 76 -11 137 -65 191 -36 36 -72 56 -172 98 -154 64 -184 91
-184 162 0 38 5 54 24 74 51 54 164 59 267 12 71 -33 80 -33 87 3 14 71 -20
111 -118 136 -78 20 -156 18 -230 -5z"/>
<path d="M1351 1721 c-20 -13 -20 -12 164 -326 85 -145 155 -266 155 -269 0
-3 -70 -123 -155 -266 -174 -294 -185 -313 -185 -334 0 -19 71 -30 124 -19 38
8 40 11 178 253 76 134 140 245 142 247 2 2 66 -108 143 -244 l139 -248 47 -9
c64 -11 123 3 120 30 -1 11 -77 148 -168 304 -146 250 -165 287 -156 307 6 13
78 138 161 278 82 140 150 263 150 274 0 23 -19 31 -73 31 -78 0 -76 1 -210
-233 -70 -122 -131 -228 -135 -235 -6 -9 -52 62 -141 218 -73 127 -141 235
-151 240 -23 12 -130 13 -149 1z"/>
<path d="M2457 1718 c-16 -12 -17 -57 -15 -607 l3 -595 33 -8 c18 -5 52 -5 75
-1 l42 9 3 594 c3 672 9 620 -78 620 -25 0 -54 -6 -63 -12z"/>
</g>
</svg>
