<?xml version="1.0" standalone="no"?>
<!DOCTYPE svg PUBLIC "-//W3C//DTD SVG 20010904//EN"
 "http://www.w3.org/TR/2001/REC-SVG-20010904/DTD/svg10.dtd">
<svg version="1.0" xmlns="http://www.w3.org/2000/svg"
 width="250.000000pt" height="250.000000pt" viewBox="0 0 250.000000 250.000000"
 preserveAspectRatio="xMidYMid meet">
<metadata>
Created by potrace 1.15, written by Peter Selinger 2001-2017
</metadata>
<g transform="translate(0.000000,250.000000) scale(0.100000,-0.100000)"
fill="#000000" stroke="none">
<path d="M60 2459 c-19 -12 -38 -27 -42 -33 -4 -6 -8 -541 -8 -1189 l0 -1179
29 -29 29 -29 1177 0 1177 0 29 29 29 29 0 1179 c0 648 -4 1183 -8 1189 -4 6
-23 21 -42 33 l-35 21 -1150 0 -1150 0 -35 -21z m2371 -28 l29 -29 0 -1162 0
-1162 -29 -29 -29 -29 -1157 0 -1157 0 -29 29 -29 29 0 1162 0 1162 29 29 29
29 1157 0 1157 0 29 -29z"/>
<path d="M211 2221 c-48 -13 -49 -33 -10 -144 45 -127 179 -510 299 -852 50
-143 129 -368 175 -500 127 -363 144 -408 164 -428 23 -24 185 -35 248 -18 54
15 56 19 154 301 42 124 112 324 153 444 l77 220 -41 95 c-23 53 -54 121 -70
151 l-28 55 -12 -30 c-7 -16 -46 -133 -87 -260 -41 -126 -111 -337 -156 -468
l-80 -239 -19 49 c-10 26 -54 154 -98 283 -43 129 -122 361 -175 515 -53 154
-130 381 -171 505 -87 263 -109 312 -144 321 -32 9 -148 9 -179 0z"/>
<path d="M1024 2206 c-6 -15 71 -186 89 -198 7 -4 114 -8 238 -8 l226 0 7
-478 6 -479 105 -211 c58 -117 105 -216 105 -222 0 -5 4 -10 9 -10 5 0 13 -10
18 -22 4 -13 10 301 13 697 l5 720 276 5 c213 4 280 8 292 19 23 19 24 147 1
179 l-15 22 -685 0 c-569 0 -686 -2 -690 -14z"/>
</g>
</svg>
