<?xml version="1.0" standalone="no"?>
<!DOCTYPE svg PUBLIC "-//W3C//DTD SVG 20010904//EN"
 "http://www.w3.org/TR/2001/REC-SVG-20010904/DTD/svg10.dtd">
<svg version="1.0" xmlns="http://www.w3.org/2000/svg"
 width="691.000000pt" height="316.000000pt" viewBox="0 0 691.000000 316.000000"
 preserveAspectRatio="xMidYMid meet">
<metadata>
Created by potrace 1.15, written by Peter Selinger 2001-2017
</metadata>
<g transform="translate(0.000000,316.000000) scale(0.100000,-0.100000)"
fill="#000000" stroke="none">
<path d="M2395 2567 c-11 -17 -12 -31 -6 -53 41 -140 607 -1724 622 -1739 17
-17 35 -20 130 -23 141 -5 162 3 188 72 45 121 291 827 291 836 0 14 -132 290
-139 290 -3 0 -73 -205 -156 -456 -82 -250 -152 -457 -155 -459 -3 -2 -76 207
-164 464 -327 962 -360 1055 -378 1073 -15 15 -35 18 -118 18 -93 0 -101 -2
-115 -23z"/>
<path d="M5837 2583 c-4 -3 -7 -221 -7 -483 0 -357 3 -479 12 -488 16 -16 90
-16 106 0 9 9 12 129 12 479 0 257 -3 474 -6 483 -5 12 -20 16 -58 16 -29 0
-56 -3 -59 -7z"/>
<path d="M3194 2566 c-3 -8 15 -55 40 -105 l46 -91 220 0 220 0 1 -442 0 -443
124 -245 124 -245 0 688 1 687 254 0 c304 0 298 -2 299 101 0 35 -5 74 -12 87
l-12 22 -650 0 c-545 0 -650 -2 -655 -14z"/>
<path d="M4528 2290 c-155 -26 -246 -142 -256 -326 -9 -170 52 -293 170 -344
61 -27 183 -32 255 -12 96 28 178 126 203 242 15 72 8 195 -15 261 -20 58 -75
124 -125 149 -33 17 -146 42 -175 39 -5 -1 -31 -5 -57 -9z m153 -123 c59 -31
88 -90 96 -189 13 -173 -59 -278 -190 -278 -109 0 -176 77 -185 214 -6 93 11
163 50 211 57 68 147 85 229 42z"/>
<path d="M5287 2290 c-106 -18 -177 -75 -226 -180 -23 -50 -26 -67 -26 -175 0
-109 2 -125 26 -176 32 -68 68 -104 134 -134 66 -31 138 -39 216 -25 114 21
189 82 231 190 30 77 32 241 3 318 -24 65 -74 126 -125 152 -33 17 -146 42
-175 39 -5 -1 -31 -5 -58 -9z m154 -123 c57 -31 88 -89 96 -183 14 -175 -58
-284 -190 -284 -64 0 -127 36 -156 89 -30 55 -40 173 -21 251 31 127 157 187
271 127z"/>
<path d="M6310 2293 c-120 -20 -186 -96 -178 -204 6 -86 35 -118 166 -180 59
-28 115 -58 125 -66 17 -16 23 -66 11 -98 -20 -51 -140 -62 -233 -20 -72 33
-91 29 -91 -20 0 -65 51 -96 181 -111 66 -8 157 15 205 52 40 30 74 99 74 149
0 55 -34 118 -78 147 -20 13 -77 41 -125 62 -93 41 -117 63 -117 109 0 69 90
102 188 67 31 -12 64 -23 74 -26 12 -4 18 2 22 23 10 45 -7 78 -51 95 -42 17
-134 28 -173 21z"/>
<path d="M1654 1726 c-7 -18 -7 -18 127 -247 60 -102 109 -191 109 -198 0 -6
-57 -106 -126 -222 -69 -115 -124 -218 -122 -227 4 -20 86 -29 116 -13 10 6
63 89 117 186 54 96 101 175 104 175 3 0 51 -80 105 -178 55 -97 104 -180 110
-185 6 -4 36 -6 66 -5 43 2 56 7 58 21 2 9 -53 114 -122 233 -69 118 -126 217
-126 219 0 2 54 96 120 208 66 111 120 210 120 219 0 9 -7 19 -16 22 -29 11
-92 6 -107 -9 -8 -7 -56 -88 -108 -179 l-92 -166 -98 172 c-54 94 -103 175
-111 179 -23 15 -118 11 -124 -5z"/>
<path d="M2488 1729 c-17 -9 -18 -42 -18 -454 0 -429 1 -445 19 -455 22 -11
71 -13 95 -4 14 5 16 55 16 459 0 404 -2 454 -16 459 -24 9 -77 7 -96 -5z"/>
<path d="M432 1718 c-9 -9 -12 -120 -12 -454 0 -394 2 -443 16 -448 24 -9 73
-7 95 4 18 10 19 23 19 200 l0 190 162 2 162 3 7 28 c4 16 4 40 -1 53 -9 24
-10 24 -170 24 l-160 0 0 150 0 150 163 0 c89 0 168 4 175 9 9 5 12 24 10 52
l-3 44 -225 3 c-167 2 -229 -1 -238 -10z"/>
<path d="M1092 1718 c-9 -9 -12 -120 -12 -454 0 -394 2 -443 16 -448 24 -9 73
-7 95 4 18 10 19 23 19 200 l0 190 162 2 163 3 9 26 c5 14 6 38 2 53 l-6 26
-165 0 -165 0 0 150 0 150 173 2 172 3 0 50 0 50 -225 3 c-167 2 -229 -1 -238
-10z"/>
</g>
</svg>
