<?xml version="1.0" standalone="no"?>
<!DOCTYPE svg PUBLIC "-//W3C//DTD SVG 20010904//EN"
 "http://www.w3.org/TR/2001/REC-SVG-20010904/DTD/svg10.dtd">
<svg version="1.0" xmlns="http://www.w3.org/2000/svg"
 width="255.000000pt" height="255.000000pt" viewBox="0 0 255.000000 255.000000"
 preserveAspectRatio="xMidYMid meet">
<metadata>
Created by potrace 1.16, written by Peter Selinger 2001-2019
</metadata>
<g transform="translate(0.000000,255.000000) scale(0.100000,-0.100000)"
fill="#000000" stroke="none">
<path d="M1108 2295 c-176 -29 -337 -100 -480 -213 l-80 -64 22 -23 21 -23
-47 -53 c-104 -117 -177 -257 -216 -416 -17 -69 -22 -118 -22 -223 0 -152 20
-256 74 -382 36 -85 123 -217 179 -273 44 -44 48 -56 26 -75 -8 -7 -15 -16
-15 -20 0 -4 33 -33 73 -63 457 -349 1103 -262 1447 195 65 86 139 230 164
318 14 50 28 68 136 175 l120 120 -119 120 c-110 111 -120 125 -136 180 -41
150 -162 345 -284 457 -229 212 -559 313 -863 263z m397 -114 c322 -86 577
-341 667 -669 18 -63 22 -105 22 -232 0 -127 -4 -169 -22 -232 -90 -328 -341
-580 -667 -670 -116 -31 -354 -31 -470 0 -326 90 -577 342 -667 670 -31 111
-31 353 0 464 96 347 362 602 712 679 114 25 309 21 425 -10z"/>
</g>
</svg>
